<?xml version="1.0" standalone="no"?>
<!DOCTYPE svg PUBLIC "-//W3C//DTD SVG 20010904//EN"
 "http://www.w3.org/TR/2001/REC-SVG-20010904/DTD/svg10.dtd">
<svg version="1.0" xmlns="http://www.w3.org/2000/svg"
 width="1703.000000pt" height="1703.000000pt" viewBox="0 0 1703.000000 1703.000000"
 preserveAspectRatio="xMidYMid meet">
<metadata>
Created by potrace 1.14, written by Peter Selinger 2001-2017
</metadata>
<g transform="translate(0.000000,1703.000000) scale(0.100000,-0.100000)"
fill="#000000" stroke="none">
<path d="M11468 16495 c-2 -2 -32 -6 -68 -10 -36 -4 -67 -8 -70 -10 -3 -2 -27
-6 -55 -9 -54 -8 -141 -28 -220 -52 -189 -58 -332 -123 -530 -239 -27 -16 -52
-32 -55 -35 -3 -3 -36 -28 -75 -55 -310 -219 -551 -522 -720 -905 -20 -47 -53
-119 -72 -160 -20 -41 -49 -104 -65 -140 -17 -35 -54 -134 -83 -220 -29 -85
-71 -207 -93 -270 -37 -105 -58 -185 -67 -258 -2 -15 -29 -97 -60 -181 -31
-85 -92 -272 -135 -415 -115 -381 -139 -450 -227 -636 -59 -125 -209 -341
-318 -460 -55 -60 -143 -157 -180 -199 -17 -18 -41 -46 -55 -61 -54 -59 -378
-431 -470 -539 -25 -29 -54 -63 -65 -75 -11 -13 -47 -54 -80 -91 -73 -84 -252
-284 -274 -306 -44 -45 -195 -234 -305 -382 -108 -147 -309 -447 -448 -672
-58 -93 -150 -242 -204 -330 -54 -87 -101 -164 -103 -169 -13 -32 -235 -354
-318 -461 -79 -101 -248 -378 -428 -700 -36 -64 -65 -118 -65 -120 0 -2 -14
-28 -31 -57 -47 -80 -231 -449 -282 -568 -25 -58 -66 -163 -92 -235 -72 -201
-123 -316 -180 -401 -14 -22 -31 -48 -38 -58 -148 -228 -450 -510 -858 -801
-105 -75 -150 -113 -159 -135 -15 -36 1 -23 -315 -247 -243 -171 -299 -210
-525 -365 -69 -47 -165 -113 -215 -148 -49 -34 -104 -71 -122 -82 -28 -17 -31
-23 -26 -54 5 -32 1 -40 -38 -81 -63 -64 -108 -93 -241 -150 -178 -78 -254
-143 -297 -250 -43 -110 -35 -170 28 -206 30 -18 53 -20 230 -20 220 -1 222 0
647 117 377 104 416 121 532 229 119 111 164 139 284 176 57 18 138 50 180 72
43 22 119 55 170 73 129 47 143 54 233 111 119 77 246 155 251 155 19 0 154
115 221 188 52 56 100 98 127 112 37 18 182 52 311 73 64 11 217 47 278 66
l65 20 73 -23 c81 -25 172 -27 286 -8 101 17 116 10 127 -62 9 -52 43 -103 76
-112 51 -13 142 -12 195 1 30 8 105 40 167 71 249 125 334 135 378 46 45 -89
91 -122 171 -122 41 0 50 -3 45 -15 -3 -8 -1 -26 4 -39 9 -24 16 -26 175 -52
83 -13 82 -7 50 -269 -13 -106 -19 -211 -19 -360 0 -235 27 -335 141 -530 78
-135 110 -232 147 -450 3 -16 10 -57 16 -90 6 -33 13 -73 16 -90 2 -16 9 -48
14 -70 5 -22 19 -87 31 -145 11 -58 37 -175 56 -260 19 -85 36 -163 38 -173 3
-10 7 -27 10 -37 3 -10 8 -28 10 -39 2 -12 24 -110 49 -219 106 -462 117 -610
49 -683 -13 -14 -28 -42 -34 -61 -11 -43 -38 -53 -86 -33 -62 26 -91 55 -134
129 -36 64 -47 76 -78 83 -105 27 -207 -66 -205 -188 2 -111 87 -214 239 -288
44 -21 132 -64 195 -95 200 -97 282 -184 296 -316 15 -149 60 -251 151 -350
61 -66 146 -123 203 -137 39 -9 95 -40 183 -99 44 -30 86 -54 93 -54 21 0 43
-29 54 -70 19 -69 78 -91 124 -45 21 21 56 107 56 138 0 23 33 75 55 85 34 16
75 1 164 -57 42 -28 92 -56 111 -62 19 -7 53 -31 75 -55 36 -39 45 -43 100
-49 78 -7 144 -20 289 -56 230 -58 280 -50 227 32 -63 99 -178 195 -306 258
-149 72 -140 65 -140 108 0 21 5 37 10 36 6 0 28 -4 50 -8 22 -3 60 -10 85
-13 104 -17 203 19 244 89 10 17 35 38 58 48 l40 17 -28 27 c-47 48 -198 111
-294 123 -14 1 -41 6 -60 9 -41 8 -59 11 -123 20 -27 4 -59 8 -70 11 -12 2
-42 7 -67 10 -153 20 -412 94 -599 171 -184 76 -248 117 -281 183 -28 55 -94
119 -129 126 -16 4 -43 2 -60 -4 -45 -16 -58 5 -42 66 16 67 18 72 36 122 25
69 25 96 0 194 -43 176 -138 491 -151 502 -14 12 -54 131 -83 249 -31 123 -42
233 -45 435 -2 135 -7 202 -20 248 -12 46 -17 105 -17 225 -1 89 -5 189 -9
222 -5 33 -12 84 -15 114 -3 30 -8 58 -11 62 -2 4 3 27 12 51 27 75 52 180 64
268 11 83 15 111 25 188 23 167 112 492 135 492 14 0 48 78 54 120 11 82 24
108 69 132 35 20 41 28 39 50 -4 32 8 56 59 120 20 26 43 65 50 85 6 21 35 74
64 118 29 45 59 100 66 123 11 39 16 43 64 58 29 8 61 17 71 19 11 2 57 16
104 31 155 48 263 74 305 74 22 0 57 9 78 20 39 21 57 19 57 -6 0 -16 -18 -51
-37 -72 -17 -18 -16 -37 3 -53 10 -8 20 -10 29 -3 70 51 124 103 145 138 36
61 50 76 72 76 10 0 56 14 101 32 76 29 167 42 183 25 4 -3 -6 -41 -21 -84
-29 -83 -29 -85 -43 -177 -13 -82 -7 -360 8 -421 24 -95 164 -408 224 -503 17
-27 50 -58 89 -82 67 -42 92 -75 169 -220 89 -168 189 -413 323 -795 76 -215
87 -245 161 -432 151 -385 194 -543 198 -733 4 -174 -20 -238 -83 -224 -41 9
-148 61 -231 110 -41 25 -82 49 -90 54 -8 5 -94 56 -190 113 -221 132 -231
136 -324 112 -70 -18 -132 -62 -175 -125 -37 -54 -39 -84 -9 -146 41 -87 89
-81 138 17 41 80 64 90 124 55 25 -14 82 -57 128 -95 121 -100 186 -137 294
-172 102 -33 192 -91 267 -172 58 -62 74 -107 81 -222 3 -55 7 -109 10 -120 2
-11 18 -78 36 -150 17 -71 34 -143 37 -160 12 -68 58 -119 118 -131 69 -13 99
17 110 106 3 30 15 79 26 108 40 111 33 202 -18 231 -25 13 -12 22 41 28 56 7
96 -9 125 -48 22 -30 52 -46 101 -56 51 -9 74 -28 91 -73 21 -56 88 -126 159
-167 30 -17 125 -55 210 -83 222 -74 371 -157 499 -277 14 -13 46 -33 70 -45
l44 -21 18 21 c26 33 16 119 -31 258 -48 141 -50 184 -17 284 33 98 37 130 22
167 -32 75 -110 81 -173 13 -59 -63 -94 -63 -215 -1 -55 28 -107 51 -118 51
-19 0 -68 25 -128 66 -19 13 -63 33 -96 44 -68 23 -125 69 -125 101 0 27 -24
69 -82 146 -55 72 -52 66 -204 423 -64 151 -127 299 -140 328 -13 29 -24 55
-24 58 0 3 -6 20 -14 37 -59 138 -241 584 -410 1008 -116 291 -186 454 -326
758 -42 91 -51 117 -42 130 24 33 42 86 48 135 3 28 12 78 20 111 18 71 15 57
49 220 29 144 57 246 103 378 36 101 62 150 132 241 28 36 75 107 106 158 31
51 74 118 96 148 22 30 217 231 432 445 468 466 561 566 754 815 45 58 86 110
91 116 40 50 209 310 275 424 27 47 165 317 166 325 0 3 10 26 21 52 53 121
139 363 164 463 5 21 55 221 59 240 2 8 34 116 70 240 58 192 129 457 142 525
2 11 6 31 9 45 9 38 45 250 50 290 2 19 8 67 12 105 10 89 10 487 0 580 -31
294 -120 547 -368 1050 -108 221 -147 289 -238 424 -95 140 -151 249 -184 356
-31 97 -37 118 -42 143 -2 10 -18 72 -35 138 -43 158 -43 162 -43 289 0 118
15 204 59 327 112 313 394 659 771 944 161 123 205 144 423 203 233 64 477
125 580 147 41 9 84 18 95 20 130 29 324 59 455 69 125 10 199 33 184 56 -8
13 -103 55 -191 84 -62 20 -470 127 -533 140 -8 2 -96 24 -195 50 -99 25 -187
48 -195 50 -52 13 -214 63 -325 100 -266 88 -466 177 -652 288 -184 110 -310
170 -481 231 -76 27 -238 70 -307 81 -22 4 -51 8 -65 11 -100 17 -177 22 -327
22 -95 0 -173 -2 -175 -3z"/>
</g>
</svg>
