<svg width="702" height="131" viewBox="0 0 702 131" fill="none" xmlns="http://www.w3.org/2000/svg">
<path d="M177.311 56.895C170.948 56.895 166.156 58.965 162.936 63.105C159.716 67.245 158.106 72.8033 158.106 79.78V106H145.226V44.82H158.106V57.125C160.176 53.2917 162.974 50.1483 166.501 47.695C170.104 45.2417 173.899 43.9767 177.886 43.9L178.001 56.895C177.771 56.895 177.541 56.895 177.311 56.895ZM265.813 106H254.083V97.835C249.023 103.892 242.238 106.92 233.728 106.92C227.364 106.92 222.074 105.118 217.858 101.515C213.718 97.9117 211.648 93.12 211.648 87.14C211.648 81.0833 213.871 76.56 218.318 73.57C222.764 70.58 228.783 69.085 236.373 69.085H253.048V66.785C253.048 58.6583 248.524 54.595 239.478 54.595C233.804 54.595 227.901 56.665 221.768 60.805L216.018 52.755C223.454 46.8517 231.888 43.9 241.318 43.9C248.524 43.9 254.389 45.74 258.913 49.42C263.513 53.0233 265.813 58.735 265.813 66.555V106ZM252.933 83.23V78.055H238.443C229.166 78.055 224.528 80.9683 224.528 86.795C224.528 89.785 225.678 92.085 227.978 93.695C230.278 95.2283 233.459 95.995 237.523 95.995C241.663 95.995 245.266 94.845 248.333 92.545C251.399 90.245 252.933 87.14 252.933 83.23ZM342.393 43.9C350.596 43.9 357.611 46.7367 363.438 52.41C369.264 58.0833 372.178 65.635 372.178 75.065C372.178 84.495 369.264 92.1617 363.438 98.065C357.688 103.968 350.941 106.92 343.198 106.92C335.531 106.92 328.631 103.547 322.498 96.8V128.31H309.618V44.82H322.498V55.515C327.558 47.7717 334.189 43.9 342.393 43.9ZM322.268 75.525C322.268 81.3517 324.031 86.1433 327.558 89.9C331.084 93.58 335.378 95.42 340.438 95.42C345.498 95.42 349.906 93.58 353.663 89.9C357.419 86.22 359.298 81.4667 359.298 75.64C359.298 69.7367 357.458 64.8683 353.778 61.035C350.098 57.125 345.689 55.17 340.553 55.17C335.416 55.17 331.084 57.125 327.558 61.035C324.031 64.8683 322.268 69.6983 322.268 75.525ZM425.638 72.88V106H412.758V20.785H425.638V55.975C427.478 52.2183 430.238 49.2667 433.918 47.12C437.675 44.9733 441.7 43.9 445.993 43.9C452.893 43.9 458.452 46.0083 462.668 50.225C466.962 54.4417 469.108 60.5367 469.108 68.51V106H456.228V72.42C456.228 61.15 451.552 55.515 442.198 55.515C437.752 55.515 433.88 57.01 430.583 60C427.287 62.9133 425.638 67.2067 425.638 72.88ZM525.859 106H512.979V44.82H525.859V106ZM513.784 32.63C512.174 31.02 511.369 29.1033 511.369 26.88C511.369 24.6567 512.174 22.74 513.784 21.13C515.394 19.52 517.311 18.715 519.534 18.715C521.757 18.715 523.674 19.52 525.284 21.13C526.894 22.74 527.699 24.6567 527.699 26.88C527.699 29.1033 526.894 31.02 525.284 32.63C523.674 34.24 521.757 35.045 519.534 35.045C517.311 35.045 515.394 34.24 513.784 32.63ZM586.282 55.17V86.22C586.282 89.1333 587.048 91.4717 588.582 93.235C590.115 94.9217 592.262 95.765 595.022 95.765C597.782 95.765 600.427 94.4233 602.957 91.74L608.247 100.825C603.723 104.888 598.702 106.92 593.182 106.92C587.738 106.92 583.062 105.042 579.152 101.285C575.318 97.4517 573.402 92.315 573.402 85.875V55.17H565.697V44.82H573.402V25.615H586.282V44.82H602.382V55.17H586.282ZM701.278 81.045H653.323C653.63 85.4917 655.661 89.095 659.418 91.855C663.175 94.5383 667.468 95.88 672.298 95.88C679.965 95.88 685.791 93.465 689.778 88.635L697.138 96.685C690.545 103.508 681.958 106.92 671.378 106.92C662.791 106.92 655.47 104.083 649.413 98.41C643.433 92.66 640.443 84.9933 640.443 75.41C640.443 65.75 643.51 58.0833 649.643 52.41C655.776 46.7367 662.983 43.9 671.263 43.9C679.62 43.9 686.711 46.43 692.538 51.49C698.365 56.4733 701.278 63.3733 701.278 72.19V81.045ZM653.323 70.925H688.398C688.398 65.7883 686.788 61.84 683.568 59.08C680.348 56.32 676.361 54.94 671.608 54.94C666.931 54.94 662.715 56.3967 658.958 59.31C655.201 62.1467 653.323 66.0183 653.323 70.925Z" fill="#2E3532"/>
<path fill-rule="evenodd" clip-rule="evenodd" d="M65.5 131C101.675 131 131 101.675 131 65.5C131 29.3253 101.675 0 65.5 0C29.3253 0 0 29.3253 0 65.5C0 101.675 29.3253 131 65.5 131ZM97.385 67.9H83.815V89.98C78.6783 93.2767 72.2767 94.925 64.61 94.925C57.02 94.925 50.5417 92.3567 45.175 87.22C39.8083 82.0067 37.125 75.145 37.125 66.635C37.125 58.0483 39.885 51.1483 45.405 45.935C50.925 40.645 57.7483 38 65.875 38C70.0917 38 73.7717 38.5367 76.915 39.61C80.135 40.6067 83.3167 42.4467 86.46 45.13L93.705 34.78C86.0383 28.0333 76.4167 24.66 64.84 24.66C53.2633 24.66 43.3733 28.6467 35.17 36.62C27.0433 44.5933 22.98 54.56 22.98 66.52C22.98 78.48 26.9667 88.37 34.94 96.19C42.99 104.01 52.9567 107.92 64.84 107.92C78.9467 107.92 89.795 103.742 97.385 95.385V67.9Z" fill="#2E3532"/>
</svg>
